<svg width="128" height="128" viewBox="0 0 128 128" fill="none" xmlns="http://www.w3.org/2000/svg">
<rect width="128" height="128" rx="18" fill="white"/>
<path d="M14.6875 101V28.2727H34.2898V55.9716H34.5739C35.2841 54.125 36.3258 52.4323 37.6989 50.8935C39.072 49.331 40.7765 48.0881 42.8125 47.1648C44.8485 46.2178 47.2159 45.7443 49.9148 45.7443C53.5133 45.7443 56.9342 46.7031 60.1776 48.6207C63.4446 50.5384 66.0961 53.5568 68.1321 57.6761C70.1918 61.7955 71.2216 67.1458 71.2216 73.7273C71.2216 80.0246 70.2391 85.2448 68.2741 89.3878C66.3329 93.5308 63.7287 96.6203 60.4616 98.6562C57.2183 100.692 53.6553 101.71 49.7727 101.71C47.2159 101.71 44.9313 101.296 42.919 100.467C40.9304 99.6151 39.2259 98.4669 37.8054 97.0227C36.4086 95.5549 35.3314 93.8977 34.5739 92.0511H34.1477V101H14.6875ZM33.8636 73.7273C33.8636 76.3788 34.2069 78.6752 34.8935 80.6165C35.6037 82.5341 36.598 84.0256 37.8764 85.0909C39.1785 86.1326 40.7292 86.6534 42.5284 86.6534C44.3277 86.6534 45.8546 86.1444 47.1094 85.1264C48.3878 84.0848 49.3584 82.6051 50.0213 80.6875C50.7079 78.7462 51.0511 76.4261 51.0511 73.7273C51.0511 71.0284 50.7079 68.7202 50.0213 66.8026C49.3584 64.8613 48.3878 63.3816 47.1094 62.3636C45.8546 61.322 44.3277 60.8011 42.5284 60.8011C40.7292 60.8011 39.1785 61.322 37.8764 62.3636C36.598 63.3816 35.6037 64.8613 34.8935 66.8026C34.2069 68.7202 33.8636 71.0284 33.8636 73.7273ZM79.4247 101V46.4545H98.4588V56.8239H99.027C100.021 52.9886 101.596 50.1832 103.75 48.4077C105.928 46.6321 108.473 45.7443 111.385 45.7443C112.237 45.7443 113.078 45.8153 113.906 45.9574C114.759 46.0758 115.575 46.2533 116.357 46.4901V63.2159C115.386 62.8845 114.19 62.6359 112.77 62.4702C111.349 62.3045 110.13 62.2216 109.112 62.2216C107.195 62.2216 105.466 62.6596 103.928 63.5355C102.412 64.3878 101.217 65.5952 100.341 67.1577C99.465 68.6965 99.027 70.5076 99.027 72.5909V101H79.4247Z" fill="url(#paint0_linear_1_3)"/>
<defs>
<linearGradient id="paint0_linear_1_3" x1="10" y1="4" x2="118.288" y2="122.918" gradientUnits="userSpaceOnUse">
<stop stop-color="#C61743"/>
<stop offset="1" stop-color="#45CE7E"/>
</linearGradient>
</defs>
</svg>
